<?xml version="1.0" encoding="UTF-8" standalone="no"?>
<svg width="256px" height="256px" viewBox="0 0 256 256" version="1.1" xmlns="http://www.w3.org/2000/svg" xmlns:xlink="http://www.w3.org/1999/xlink" xmlns:sketch="http://www.bohemiancoding.com/sketch/ns">
    <title>pocal</title>
    <description>Created with Sketch (http://www.bohemiancoding.com/sketch)</description>
    <defs>
        <path id="path-1" d="M0,0 L150.067901,0 L150.067901,171 L0,171"></path>
        <mask id="mask-2" sketch:name="Clip 4" fill="white">
            <use xlink:href="#path-1"></use>
        </mask>
    </defs>
    <g id="Page-1" stroke="none" stroke-width="1" fill="none" fill-rule="evenodd" sketch:type="MSPage">
        <g id="pocal" sketch:type="MSArtboardGroup">
            <g id="Imported-Layers" sketch:type="MSLayerGroup" transform="translate(53.000000, 44.000000)">
                <path d="M102.555326,147.456847 C101.854334,144.894585 99.5651022,143.122038 96.9541594,143.122038 L84.610597,143.122038 L84.610597,121.744565 C81.4815293,122.279088 78.2745736,122.572214 75.0100485,122.572214 C71.7387505,122.572214 68.5317948,122.279088 65.4027271,121.744565 L65.4027271,143.122038 L53.0727105,143.122038 C50.4583812,143.122038 48.1657634,144.894585 47.4681574,147.456847 L43.0861081,163.489089 C42.6052341,165.271982 42.96081,167.18592 44.061402,168.654996 C45.1653804,170.130969 46.875531,171 48.6940476,171 L101.329436,171 L101.376846,171 C104.590575,171 107.191358,168.348076 107.191358,165.075416 C107.191358,164.261561 107.032195,163.482192 106.740962,162.778691 L102.555326,147.456847 Z" id="Fill-1" fill="#DEBE5F" sketch:type="MSShapeGroup"></path>
                <g id="Group-5">
                    <g id="Clip-4"></g>
                    <path d="M140.653054,55.94189 C138.182451,65.1913666 131.622931,72.3272672 124.901235,73.4184783 C124.966795,73.1809591 125.032356,72.9399977 125.091016,72.695594 C125.153126,72.4787287 125.208335,72.2653057 125.263544,72.0449981 C125.618952,70.6439795 125.9157,69.2154225 126.164141,67.7696539 C126.208998,67.5114809 126.250405,67.2601926 126.291811,66.9985773 C126.52645,65.5390395 126.716231,64.0657325 126.847352,62.5786562 C126.868055,62.3652332 126.878407,62.1586949 126.892209,61.9521565 C127.012979,60.3755803 127.085441,58.7852348 127.085441,57.1845625 L127.085441,30.9266512 C127.848015,30.7683051 128.617491,30.6684783 129.373164,30.6684783 C130.228904,30.6684783 131.077742,30.7751898 131.892075,30.9954973 C139.697248,33.0643233 143.706802,44.4858951 140.653054,55.94189 M102.769736,44.5051551 L87.4467423,56.2538598 L93.0181291,74.8431045 C93.2331887,75.563884 92.9778055,76.3464445 92.3830313,76.7926413 C92.0772435,77.0191719 91.7143305,77.1358696 91.3614984,77.1358696 C91.0153869,77.1358696 90.6692754,77.0329011 90.3802892,76.8200995 L74.5700509,65.7097995 L58.7631729,76.8200995 C58.1616782,77.2525672 57.3484842,77.2354058 56.7537101,76.7926413 C56.158936,76.3464445 55.9069131,75.563884 56.1286933,74.8431045 L61.6899992,56.2538598 L46.3670052,44.5051551 C45.7755914,44.0520938 45.5269288,43.2592364 45.7587899,42.5418892 C45.9839304,41.8279744 46.6291091,41.3337256 47.3717366,41.3165642 L66.6162073,40.9218517 L72.9369423,22.5557054 C73.1788843,21.8486551 73.8341439,21.375 74.5700509,21.375 C75.3093181,21.375 75.9612174,21.8486551 76.2031594,22.5557054 L82.5238945,40.9218517 L101.761645,41.3165642 C102.504272,41.3337256 103.156171,41.8279744 103.381312,42.5418892 C103.603092,43.2592364 103.36451,44.0520938 102.769736,44.5051551 M10.3452728,55.94189 C7.29465118,44.4858951 11.3046311,33.0643233 19.1037316,30.9954973 C19.9250528,30.7751898 20.7705305,30.6684783 21.6263609,30.6684783 C22.3855654,30.6684783 23.1447699,30.7683051 23.9074253,30.9266512 L23.9074253,57.1845625 C23.9074253,58.7852348 23.9867966,60.372138 24.1110301,61.9418296 C24.1248338,62.1552526 24.1351866,62.3652332 24.1489903,62.5786562 C24.2801256,64.0657325 24.4699268,65.5390395 24.70459,66.9985773 C24.7460011,67.2601926 24.7908632,67.5114809 24.8322743,67.7696539 C25.0876431,69.2154225 25.384423,70.6439795 25.7364178,72.0449981 C25.7881818,72.2618634 25.8502985,72.4787287 25.9055134,72.695594 C25.971081,72.9399977 26.0297468,73.1775168 26.0987654,73.4184783 C19.3832568,72.3272672 12.8126873,65.1913666 10.3452728,55.94189 M133.678143,21.6630729 C132.078547,21.2330198 130.458788,21.0248195 128.84575,21.0248195 C128.10308,21.0248195 127.360411,21.0760163 126.617741,21.1579312 L126.617741,5.51901511 C126.617741,2.47451203 124.191463,0 121.19054,0 L28.8810697,0 C25.8801466,0 23.4471474,2.47451203 23.4471474,5.51901511 L23.4471474,21.1579312 C22.7044777,21.0760163 21.9651685,21.0248195 21.2224989,21.0248195 C19.6094607,21.0248195 17.9897015,21.2330198 16.3934659,21.6630729 C3.72439521,25.0932586 -3.02348114,41.3055788 1.31491944,57.8762766 C5.11564063,72.3615581 16.1279867,82.3312817 27.3016365,82.3312817 C27.8661999,82.3312817 28.4341237,82.2732587 29.0020476,82.2186488 C29.4153886,83.1265387 29.8522531,84.017363 30.3126411,84.8945349 C30.400014,85.0583646 30.4840264,85.2221944 30.5680388,85.3757848 C31.2434985,86.6420523 31.9626447,87.8741887 32.7254773,89.0653676 C32.8094898,89.1984793 32.8968627,89.3350041 32.9842356,89.4681157 C33.7806732,90.6900127 34.6107157,91.8880179 35.4878052,93.0450656 C35.5113287,93.0757836 35.5382127,93.1030886 35.5650966,93.1338067 C37.4066485,95.5468825 39.4363882,97.7790631 41.6173503,99.8269351 C41.6610367,99.8644794 41.6946417,99.9054368 41.7316071,99.9361549 C42.8103264,100.943025 43.9293717,101.895286 45.0753009,102.799763 C45.1290688,102.844133 45.1828367,102.881678 45.2366047,102.922635 C49.9782648,106.622457 55.3180932,109.468999 61.0578207,111.247235 C61.0746232,111.257474 61.0914257,111.260887 61.1115887,111.267713 C62.5532415,111.708006 64.0083364,112.086862 65.4936757,112.397456 L65.5003967,112.397456 C67.0361435,112.711463 68.5954137,112.957208 70.1714864,113.121038 C70.2050914,113.127864 70.2454173,113.127864 70.2790223,113.131277 C71.8450135,113.288281 73.4345282,113.380435 75.0341244,113.380435 C76.6337206,113.380435 78.2131538,113.288281 79.7757845,113.131277 C79.8161105,113.127864 79.8530759,113.127864 79.8967624,113.121038 C81.4694746,112.960621 83.0186634,112.711463 84.5476891,112.397456 L84.5577706,112.397456 L84.5745731,112.397456 C86.0531914,112.086862 87.5116468,111.708006 88.9432181,111.271127 C88.9633811,111.2643 88.9835441,111.257474 89.0104281,111.250648 C94.7501556,109.468999 100.083263,106.62587 104.828284,102.926048 C104.882052,102.888504 104.932459,102.844133 104.986227,102.803176 C106.142238,101.898699 107.257922,100.943025 108.333281,99.939568 C108.370247,99.9054368 108.403852,99.8747188 108.440817,99.8337613 C110.631861,97.7893024 112.6616,95.5468825 114.509873,93.1303936 C114.536757,93.1030886 114.55692,93.0791968 114.573723,93.0484787 C115.454173,91.891431 116.287576,90.6934258 117.084013,89.4681157 C117.171386,89.3384172 117.258759,89.2053055 117.346132,89.0721938 C118.102244,87.8741887 118.828111,86.6420523 119.503571,85.3757848 C119.587583,85.2221944 119.668235,85.0651909 119.752247,84.9047742 C120.212635,84.0241893 120.65286,83.1299518 121.069562,82.2186488 C121.637486,82.2732587 122.20877,82.3312817 122.769973,82.3312817 C133.940262,82.3312817 144.955969,72.3615581 148.749969,57.8762766 C153.09509,41.3055788 146.343854,25.0932586 133.678143,21.6630729" id="Fill-3" fill="#DEBE5F" sketch:type="MSShapeGroup" mask="url(#mask-2)"></path>
                </g>
            </g>
        </g>
    </g>
</svg>