<?xml version="1.0" encoding="UTF-8" standalone="no"?>
<svg width="256px" height="256px" viewBox="0 0 256 256" version="1.1" xmlns="http://www.w3.org/2000/svg" xmlns:xlink="http://www.w3.org/1999/xlink" xmlns:sketch="http://www.bohemiancoding.com/sketch/ns">
    <title>team</title>
    <description>Created with Sketch (http://www.bohemiancoding.com/sketch)</description>
    <defs></defs>
    <g id="Page-1" stroke="none" stroke-width="1" fill="none" fill-rule="evenodd" sketch:type="MSPage">
        <g id="team" sketch:type="MSArtboardGroup">
            <g id="cowork" sketch:type="MSLayerGroup" transform="translate(19.000000, 54.000000)">
                <g id="Fill-1-+-Fill-4" transform="translate(134.000000, 4.000000)" fill="#9BCADE" sketch:type="MSShapeGroup">
                    <path d="M85.4248393,77.2395956 C77.1344375,69.4067397 67.0241914,63.8694187 56.1545535,61.232182 C55.8804535,61.083235 55.570406,61 55.255865,61 L54.2628141,61 C53.95726,61 53.6517059,61.083235 53.3686191,61.2278012 C50.0884059,62.93631 45.5949632,63.9307498 41.0206385,63.9307498 C36.4597941,63.9307498 31.9483777,62.93631 28.663671,61.2278012 C28.389571,61.083235 28.07503,61 27.7694759,61 L27.0550185,61 C26.9112284,61 26.7584513,61.021904 26.6191546,61.0481887 C21.7797168,62.1696714 17.1065364,63.8913227 12.6535347,66.094861 C10.3573854,73.8707666 5.94931815,81.3005897 0,87 L84.1082606,87 C85.1462459,87 86,86.1764111 86,85.1556866 L86,78.5713564 C86,78.0719461 85.7977951,77.5944398 85.4248393,77.2395956" id="Fill-1"></path>
                    <path d="M20,31.277337 C20,33.2691584 21.5363146,34.8988305 23.4234063,34.8988305 L23.4900095,34.8988305 C24.1960038,44.447207 31.7621313,54 40.9977799,54 C50.2334285,54 57.7906755,44.447207 58.5055503,34.8988305 L58.5588329,34.8988305 C60.4548049,34.8988305 62,33.2691584 62,31.277337 C62,29.8022409 61.1607992,28.5347182 59.9663812,27.9649955 C60.6546147,25.8318476 61.0364732,23.5308743 61.0364732,21.132739 C61.0364732,9.46446389 52.0716778,0 40.9977799,0 C29.923882,0 20.9546464,9.46446389 20.9546464,21.132739 C20.9546464,23.5308743 21.3365049,25.8318476 22.0291786,27.9649955 C20.8303203,28.5347182 20,29.8022409 20,31.277337" id="Fill-4"></path>
                </g>
                <g id="Fill-6-+-Fill-9" transform="translate(0.000000, 3.000000)" fill="#9B9EDE" sketch:type="MSShapeGroup">
                    <path d="M72.1789719,65.4866869 C68.3128834,63.6639703 64.2804633,62.23121 60.1401523,61.2278396 C59.8659298,61.0832491 59.5512481,61 59.241062,61 L58.2520626,61 C57.9463719,61 57.6406812,61.0788675 57.3619632,61.223458 C54.0712926,62.9366363 49.5758409,63.9312437 45.0039666,63.9312437 C40.4320922,63.9312437 35.9231542,62.9366363 32.6369791,61.223458 C32.3627565,61.0788675 32.0525703,61 31.7423842,61 L31.0276074,61 C30.8792575,61 30.7309076,61.0175261 30.5915486,61.0438153 C19.4248466,63.6289181 9.05383964,69.2328952 0.566426909,77.2423323 C0.206790776,77.5972363 0,78.0748231 0,78.569936 L0,85.1553758 C0,86.1806539 0.849640364,87 1.8970806,87 L85,87 C78.8906812,81.1550388 74.4222022,73.4698349 72.1789719,65.4866869" id="Fill-6"></path>
                    <path d="M24,31.856547 C24,33.8852539 25.5730598,35.5451051 27.5052865,35.5451051 L27.5780292,35.5451051 C28.3009093,45.2703034 36.0389089,55 45.5,55 C54.9565447,55 62.6990907,45.2703034 63.4265172,35.5451051 L63.4810742,35.5451051 C65.4269402,35.5451051 67,33.8852539 67,31.856547 C67,30.3541343 66.1452738,29.063139 64.9268344,28.4828658 C65.6269824,26.3102151 66.0179742,23.9666312 66.0179742,21.524086 C66.0179742,9.63973174 56.8342144,0 45.5,0 C34.1657856,0 24.9774794,9.63973174 24.9774794,21.524086 C24.9774794,23.9666312 25.3684711,26.3102151 26.077712,28.4828658 C24.8547262,29.063139 24,30.3541343 24,31.856547" id="Fill-9"></path>
                </g>
                <path d="M73,53.8643743 C73,57.3160768 75.629852,60.1086155 78.8792794,60.1086155 C78.9193958,60.1086155 78.9550548,60.0997079 78.9862564,60.0997079 C79.4409088,66.2771419 81.5537052,72.4367607 84.8521637,77.7501556 C86.158175,79.8479 87.6647682,81.7808534 89.3050826,83.5534697 C94.5826162,89.2365308 101.460348,93 108.997771,93 C117.05225,93 124.353433,88.7198889 129.751316,82.3776639 C130.411007,81.6071548 131.039497,80.8054691 131.641243,79.9681529 C135.79106,74.2093769 138.483316,67.16345 139.018201,60.0997079 C139.040488,60.0997079 139.080604,60.1086155 139.120721,60.1086155 C142.370148,60.1086155 145,57.3160768 145,53.8643743 C145,51.3346104 143.569182,49.1477899 141.514332,48.1768593 C142.704451,44.4846511 143.355228,40.5385757 143.355228,36.414348 C143.355228,16.3009434 127.97728,0 108.997771,0 C90.0182629,0 74.6403145,16.3009434 74.6403145,36.414348 C74.6403145,40.5385757 75.3000062,44.4846511 76.4812109,48.1768593 C74.4263604,49.1477899 73,51.3346104 73,53.8643743" id="Fill-11" fill="#608FDF" sketch:type="MSShapeGroup"></path>
                <path d="M135.243148,103.382071 C134.777736,103.119953 134.249671,103 133.712656,103 L132.034485,103 C131.50642,103 130.978356,103.119953 130.517418,103.373186 C124.927989,106.349788 117.271052,108.051338 109.502238,108.051338 C101.733423,108.051338 94.0764866,106.340902 88.4915324,103.373186 C88.0171693,103.119953 87.4935798,103 86.9699903,103 L85.7438065,103 C85.5021498,103 85.2470678,103.022213 85.0054111,103.079968 C66.026412,107.540428 48.3854749,117.238819 33.9845272,131.122223 C33.3535348,131.721986 33,132.543884 33,133.405766 L33,144.814592 C33,146.578339 34.4409898,148 36.222089,148 L182.791336,148 C184.563485,148 186,146.578339 186,144.814592 L186,133.405766 C186,132.543884 185.65094,131.721986 185.024423,131.122223 C170.936734,117.536479 153.738834,107.962484 135.243148,103.382071" id="Fill-13" fill="#608FDF" sketch:type="MSShapeGroup"></path>
            </g>
        </g>
    </g>
</svg>