<?xml version="1.0" encoding="UTF-8" standalone="no"?>
<svg width="150px" height="150px" viewBox="0 0 150 150" version="1.1" xmlns="http://www.w3.org/2000/svg" xmlns:xlink="http://www.w3.org/1999/xlink" xmlns:sketch="http://www.bohemiancoding.com/sketch/ns">
    <title>logo</title>
    <description>Created with Sketch (http://www.bohemiancoding.com/sketch)</description>
    <defs>
        <path id="path-1" d="M0,0.643548387 L149.359677,0.643548387 L149.359677,150 L0,150"></path>
        <mask id="mask-2" sketch:name="Clip 4" fill="white">
            <use xlink:href="#path-1"></use>
        </mask>
    </defs>
    <g id="Page-1" stroke="none" stroke-width="1" fill="none" fill-rule="evenodd" sketch:type="MSPage">
        <g id="logo" sketch:type="MSArtboardGroup">
            <g sketch:type="MSLayerGroup">
                <path d="M23.776129,129.544194 C23.776129,129.544194 22.5890323,124.802258 29.7793548,121.418387 C29.7793548,121.418387 40.9374194,118.128065 51.1454839,106.363548 C61.1745161,94.8183871 70.2487097,74.8151613 71.1390323,72.5716129 C71.1390323,72.5716129 66.7164516,70.9441935 67.4196774,65.0377419 C68.1148387,59.1167742 77.9341935,57.653871 77.9341935,57.653871 C77.9341935,57.653871 93.5148387,12.1216129 118.087419,15.9506452 C118.087419,15.9506452 119.806774,16.1974194 121.608387,17.2458065 C108.780968,6.87 92.46,0.644193548 74.6777419,0.644193548 C33.4325806,0.644193548 0.000322580645,34.0796774 0.000322580645,75.32 C0.000322580645,97.0458065 9.28580645,116.599032 24.093871,130.245806 C23.9841935,130.02 23.876129,129.794194 23.776129,129.544194" id="Fill-1" fill="#020202" sketch:type="MSShapeGroup"></path>
                <g id="Group-5" transform="translate(0.000000, -0.000000)">
                    <g id="Clip-4"></g>
                    <path d="M123.965161,19.2422581 C125.611935,21.2906452 126.490968,24.5632258 124.537742,29.7729032 C124.537742,29.7729032 105.860323,35.7729032 100.13129,57.3793548 C100.13129,57.3793548 106.582903,58.1180645 104.994194,65.5422581 C103.403871,72.9841935 94.8296774,72.4987097 94.8296774,72.4987097 C94.8296774,72.4987097 82.9683871,101.335806 60.87,121.27129 C60.87,121.27129 45.2264516,135.072903 30.0893548,134.27129 C30.0893548,134.27129 29.5103226,134.318065 28.6812903,134.129355 C41.3619355,144.063226 57.3216129,150.000323 74.6764516,150.000323 C115.923226,150.000323 149.35871,116.564839 149.35871,75.3196774 C149.35871,52.9712903 139.526452,32.9277419 123.965161,19.2422581" id="Fill-3" fill="#020202" sketch:type="MSShapeGroup" mask="url(#mask-2)"></path>
                </g>
            </g>
        </g>
    </g>
</svg>